# xmcd CD database file
#
# Track frame offsets:
#	150
#	21360
#	40498
#	56965
#	78198
#	103125
#	114236
#	131651
#	143545
#	158025
#	178162
#	201175
#	224550
#	241500
#
# Disc length: 3462 seconds
#
# Revision: 0
# Processed by: cddbd v1.4PL0 Copyright (c) Steve Scherf et al.
# Submitted via: CDex 1.40Release
#
DISCID=c40d840e
DTITLE=Brother Yusef and the F.B. Experience - LIVE and RAW, the bootleg recordings
DYEAR=2001
DGENRE=Blues
TTITLE0=Let The Good Times Roll
TTITLE1=My Baby's Lovin' Someone Else
TTITLE2=Power Of The Blues
TTITLE3=Get Outta Town
TTITLE4=Sweet Woman Tonite
TTITLE5=A Little Front Porch Thang
TTITLE6=Cigar Box and Coffee Can Blues
TTITLE7=Big Daddy
TTITLE8=Jesus on My Mind
TTITLE9=Hey There Blues
TTITLE10=Johnny B. Goode
TTITLE11=This Little Light Of Mine
TTITLE12=Hoochie Coochie Man
TTITLE13=Back At The Crossroads
EXTD=YEAR: 2001 ID3G: 0
EXTT0=
EXTT1=
EXTT2=
EXTT3=
EXTT4=
EXTT5=
EXTT6=
EXTT7=
EXTT8=
EXTT9=
EXTT10=
EXTT11=
EXTT12=
EXTT13=
PLAYORDER=
